<svg version="1.1" id="Layer_1" xmlns="http://www.w3.org/2000/svg" xmlns:xlink="http://www.w3.org/1999/xlink" x="0px" y="0px" viewBox="0 0 512 512" style="enable-background:new 0 0 512 512;" xml:space="preserve" fill="currentColor" width="16px" height="16px"><style type="text/css">	.st0{fill:#FBBC04;}	.st1{fill:#EA4335;}	.st2{fill:#4285F4;}	.st3{fill:#34A853;}</style><g><path class="st0" d="M129.3,117.8c70,0,126.7,56.7,126.7,126.7V256H14.1c-6.4,0-11.5-5.2-11.5-11.5		C2.6,174.5,59.3,117.8,129.3,117.8z"></path><path class="st1" d="M394.2,129.3c0,70-56.7,126.7-126.7,126.7H256V14.1c0-6.4,5.2-11.5,11.5-11.5		C337.5,2.6,394.2,59.3,394.2,129.3z"></path><path class="st2" d="M382.7,394.2c-70,0-126.7-56.7-126.7-126.7V256h241.9c6.4,0,11.5,5.2,11.5,11.5		C509.4,337.5,452.7,394.2,382.7,394.2z"></path><path class="st3" d="M117.8,382.7c0-70,56.7-126.7,126.7-126.7H256v241.9c0,6.4-5.2,11.5-11.5,11.5		C174.5,509.4,117.8,452.7,117.8,382.7z"></path></g></svg>