<svg viewBox="20.63 45.33 471.4 421.34" version="1.1" id="svg3" sodipodi:docname="google-admin.svg" inkscape:export-filename="../PNG/google-admin.png" inkscape:export-xdpi="96" inkscape:export-ydpi="96" inkscape:version="1.4 (e7c3feb100, 2024-10-09)" xmlns:inkscape="http://www.inkscape.org/namespaces/inkscape" xmlns:sodipodi="http://sodipodi.sourceforge.net/DTD/sodipodi-0.dtd" xmlns="http://www.w3.org/2000/svg" xmlns:svg="http://www.w3.org/2000/svg" fill="currentColor" width="16px" height="16px"><defs id="defs3"></defs><sodipodi:namedview id="namedview3" pagecolor="#505050" bordercolor="#eeeeee" borderopacity="1" inkscape:showpageshadow="0" inkscape:pageopacity="0" inkscape:pagecheckerboard="0" inkscape:deskcolor="#505050" inkscape:zoom="2.0126264" inkscape:cx="235.51316" inkscape:cy="210.67" inkscape:window-width="2752" inkscape:window-height="1070" inkscape:window-x="0" inkscape:window-y="0" inkscape:window-maximized="1" inkscape:current-layer="svg3"></sodipodi:namedview><path d="m65.414 346.668 55.172 95.57a48.83 48.83 0 0 0 42.293 24.43h117.496l-21.148-64.188-50.829-55.812-71.492-12.43Zm420.078-115.094-53.57-92.8-46.082 51.011L358.64 256l29.548 70.852 43.386 46.933 53.918-93.36a48.87 48.87 0 0 0 0-48.85M280.398 45.332H162.906a48.82 48.82 0 0 0-42.293 24.43l-55.199 95.57 71.492 12.43 71.492-12.43 52.188-55.812Zm0 0" style="stroke:none;fill-rule:nonzero;fill:#1967d2;fill-opacity:1" id="path1"></path><path d="m154 256 54.398-90.668H65.414l-38.242 66.242a48.89 48.89 0 0 0 0 48.852l38.242 66.242h142.984Zm150.238-90.668L358.641 256l73.254-117.227-39.84-69.011a48.83 48.83 0 0 0-42.293-24.43h-69.364l-72 120Zm0 0" style="stroke:none;fill-rule:nonzero;fill:#4285f4;fill-opacity:1" id="path2"></path><path d="M304.238 346.668h-95.84l72 120h69.364a48.83 48.83 0 0 0 42.293-24.43l39.52-68.453L358.64 256Zm0 0" style="stroke:none;fill-rule:nonzero;fill:#4285f4;fill-opacity:1" id="path3"></path></svg>