<svg aria-label="Google" role="img" viewBox="0 0 512 512" version="1.1" id="svg4" sodipodi:docname="google.svg" inkscape:export-filename="../PNG/google.png" inkscape:export-xdpi="96" inkscape:export-ydpi="96" inkscape:version="1.4 (e7c3feb100, 2024-10-09)" xmlns:inkscape="http://www.inkscape.org/namespaces/inkscape" xmlns:sodipodi="http://sodipodi.sourceforge.net/DTD/sodipodi-0.dtd" xmlns="http://www.w3.org/2000/svg" xmlns:svg="http://www.w3.org/2000/svg" fill="currentColor" width="16px" height="16px"><defs id="defs4"></defs><sodipodi:namedview id="namedview4" pagecolor="#505050" bordercolor="#eeeeee" borderopacity="1" inkscape:showpageshadow="0" inkscape:pageopacity="0" inkscape:pagecheckerboard="0" inkscape:deskcolor="#505050" inkscape:zoom="1.65625" inkscape:cx="256" inkscape:cy="256" inkscape:window-width="2752" inkscape:window-height="1070" inkscape:window-x="0" inkscape:window-y="0" inkscape:window-maximized="1" inkscape:current-layer="svg4"></sodipodi:namedview><rect width="512" height="512" rx="15%" fill="#ffffff" id="rect1"></rect><path fill="#4285f4" d="M386 400c45-42 65-112 53-179H260v74h102c-4 24-18 44-38 57z" id="path1"></path><path fill="#34a853" d="M90 341a192 192 0 0 0 296 59l-62-48c-53 35-141 22-171-60z" id="path2"></path><path fill="#fbbc02" d="M153 292c-8-25-8-48 0-73l-63-49c-23 46-30 111 0 171z" id="path3"></path><path fill="#ea4335" d="M153 219c22-69 116-109 179-50l55-54c-78-75-230-72-297 55z" id="path4"></path></svg>