<svg id="Layer_1" data-name="Layer 1" viewBox="0 0 100 100" version="1.1" sodipodi:docname="proxmox.svg" inkscape:export-filename="../refind/icons/os_proxmox.png" inkscape:export-xdpi="96" inkscape:export-ydpi="96" inkscape:version="1.3.2 (091e20ef0f, 2023-11-25)" xmlns:inkscape="http://www.inkscape.org/namespaces/inkscape" xmlns:sodipodi="http://sodipodi.sourceforge.net/DTD/sodipodi-0.dtd" xmlns="http://www.w3.org/2000/svg" xmlns:svg="http://www.w3.org/2000/svg" fill="currentColor" width="16px" height="16px"><sodipodi:namedview id="namedview5" pagecolor="#505050" bordercolor="#eeeeee" borderopacity="1" inkscape:showpageshadow="0" inkscape:pageopacity="0" inkscape:pagecheckerboard="0" inkscape:deskcolor="#505050" inkscape:zoom="8.53" inkscape:cx="50" inkscape:cy="50" inkscape:window-width="2752" inkscape:window-height="1070" inkscape:window-x="0" inkscape:window-y="0" inkscape:window-maximized="1" inkscape:current-layer="Layer_1"></sodipodi:namedview><defs id="defs1"><style id="style1">.cls-1{fill:#fff;}.cls-2{fill:#e57000;}</style></defs><path class="cls-1" d="M46.75,50C37.83,40.27,29.29,30.8,20.54,21.53a14.88,14.88,0,0,0-5.93-3.39C9.19,16.28,3,18.09.19,22.18c7.65,8.42,15.26,16.93,23,25.28,1.84,2,1.79,3.2,0,5.1-4.37,4.55-8.54,9.31-12.79,14C6.92,70.39,3.45,74.25,0,78.08c5.62,5.86,14.9,6.28,20.53.47C29.4,69.4,37.8,59.79,46.75,50ZM100,22c-6.17-6.37-15.62-6-21.91.81C70.31,31.15,62.68,39.65,55,48.11a21,21,0,0,0-1.49,2.09c6,6.63,11.85,13.12,17.72,19.59,2.61,2.88,5.12,5.88,7.91,8.57,6.07,5.87,16.33,5.61,20.66-.55-7.56-8.32-15.08-16.74-22.8-25-2-2.16-2.05-3.48,0-5.66C84.72,38.93,92.24,30.51,100,22ZM16.53,10.26,50,47.15l33.5-37c-6.83-6-14.9-5.64-20.82.68-4.26,4.55-8.39,9.23-12.69,14-4.59-5-8.76-9.76-13.13-14.32C31,4.42,22.7,4.27,16.53,10.26ZM50,52.84,16.61,89.64c5.7,6.12,14.48,6,20.46-.29C41.43,84.79,45.58,80,50,75.19c1.28,1.38,2.43,2.61,3.56,3.85,3.28,3.58,6.45,7.28,9.86,10.74,5.88,6,15.45,5.79,19.81-.32Z" id="path1"></path><path class="cls-2" d="M46.75,50c-9,9.8-17.35,19.41-26.22,28.56C14.9,84.36,5.62,83.94,0,78.08c3.45-3.83,6.92-7.69,10.4-11.53,4.25-4.68,8.42-9.44,12.79-14,1.83-1.9,1.88-3.13,0-5.1C15.45,39.11,7.84,30.6.19,22.18c2.84-4.09,9-5.9,14.42-4a14.88,14.88,0,0,1,5.93,3.39C29.29,30.8,37.83,40.27,46.75,50Z" id="path2"></path><path class="cls-2" d="M100,22c-7.76,8.54-15.28,17-23,25.2-2,2.18-2,3.5,0,5.66,7.72,8.24,15.24,16.66,22.8,25-4.33,6.16-14.59,6.42-20.66.55-2.79-2.69-5.3-5.69-7.91-8.57-5.87-6.47-11.73-13-17.72-19.59A21,21,0,0,1,55,48.11c7.67-8.46,15.3-17,23.08-25.33C84.38,16,93.83,15.6,100,22Z" id="path3"></path><path d="M16.53,10.26c6.17-6,14.49-5.84,20.34.24,4.37,4.56,8.54,9.3,13.13,14.32,4.3-4.74,8.43-9.42,12.69-14,5.92-6.32,14-6.68,20.82-.68L50,47.15Z" id="path4"></path><path d="M50,52.84,83.22,89.46c-4.36,6.11-13.93,6.28-19.81.32C60,86.32,56.83,82.62,53.55,79c-1.13-1.24-2.28-2.47-3.56-3.85-4.41,4.85-8.56,9.6-12.92,14.16-6,6.25-14.76,6.41-20.46.29Z" id="path5"></path></svg>