<svg version="1.1" id="Layer_1" xmlns="http://www.w3.org/2000/svg" xmlns:xlink="http://www.w3.org/1999/xlink" x="0px" y="0px" viewBox="0 0 256 254.5" style="enable-background:new 0 0 256 254.5;" xml:space="preserve" fill="currentColor" width="16px" height="16px"><style type="text/css">	.st0{fill:#009A7C;}	.st1{fill:#00B294;}	.st2{fill:#24BFA5;}</style><path class="st0" d="M36.7,133.4L3.5,162c-4.6,4.2-4.6,11.5,0,15.8l14.1,12.8c3.8,3.5,9.5,3.7,13.6,0.6l38.2-28L36.7,133.4z"></path><path class="st0" d="M168,11.1c5.1-4.7,13.4-1,13.4,5.9v57.7l-76.4,60.6l-39.4-29.9L168,11.1z"></path><path class="st1" d="M181.4,179.8L31.2,63.3c-4.1-3.1-9.8-2.8-13.6,0.6L3.5,76.7c-4.6,4.2-4.7,11.5,0,15.8L168,243.4	c5.1,4.7,13.4,1.1,13.4-5.9V179.8z"></path><path class="st2" d="M194.2,252.9c-6.1,2.9-13.4,1.7-18.2-3.1c5.9,5.9,16,1.7,16-6.6V11.3c0-8.3-10.1-12.5-16-6.6	c4.8-4.8,12.1-6,18.2-3.1l52.7,25.3c5.5,2.7,9.1,8.3,9.1,14.4v171.9c0,6.1-3.5,11.7-9.1,14.4L194.2,252.9z"></path></svg>